<svg width="64" height="64" viewBox="0 0 64 64" fill="none" xmlns="http://www.w3.org/2000/svg">
<rect width="64" height="64" fill="#262626"/>
<g id="App Intro">
<path d="M-1276 -181C-1276 -216.346 -1247.35 -245 -1212 -245H674C709.346 -245 738 -216.346 738 -181V877C738 912.346 709.346 941 674 941H-1212C-1247.35 941 -1276 912.346 -1276 877V-181Z" fill="#1B1B1B"/>
<path d="M-1212 -244H674V-246H-1212V-244ZM737 -181V877H739V-181H737ZM674 940H-1212V942H674V940ZM-1275 877V-181H-1277V877H-1275ZM-1212 940C-1246.79 940 -1275 911.794 -1275 877H-1277C-1277 912.899 -1247.9 942 -1212 942V940ZM737 877C737 911.794 708.794 940 674 940V942C709.899 942 739 912.899 739 877H737ZM674 -244C708.794 -244 737 -215.794 737 -181H739C739 -216.899 709.899 -246 674 -246V-244ZM-1212 -246C-1247.9 -246 -1277 -216.899 -1277 -181H-1275C-1275 -215.794 -1246.79 -244 -1212 -244V-246Z" fill="white" fill-opacity="0.1"/>
<g id="App Onboarding">
<g clip-path="url(#clip0_47_7319)">
<rect x="-16" y="-74" width="390" height="844" rx="32" fill="#0F1E31"/>
<g id="Logo SVG">
<path id="Vector" d="M8.87033 51.2023C9.65641 49.8141 10.368 48.3761 11.1115 46.961L14.597 40.393L26.5894 17.8088L30.7551 9.94334C31.4592 8.62008 32.1281 7.23664 32.8997 5.95915C33.2432 6.33605 33.7891 7.49848 34.0835 8.01574L37.1978 13.4696C36.875 13.9489 36.5086 14.395 36.1615 14.8543L34.3413 17.2745L28.5542 24.9828L10.9106 48.5095C10.2372 49.3931 9.62452 50.4006 8.87033 51.2023Z" fill="white"/>
<path id="Vector_2" d="M14.7066 47.54C15.2274 46.7708 15.8263 46.053 16.4015 45.3306L18.9388 42.1489L26.8651 32.1974L34.7859 22.2613L37.2897 19.1103C37.8266 18.4344 38.3483 17.7333 38.9383 17.1098C39.8725 17.0466 40.8969 17.1086 41.8406 17.1092C43.6428 17.0959 45.4448 17.0987 47.2467 17.1178C46.2585 18.0925 45.2195 19.0189 44.2074 19.9656L38.2527 25.5365L19.2285 43.3548C18.3204 44.1709 17.4307 45.0184 16.5432 45.8606C15.9405 46.4325 15.3482 47.0186 14.7066 47.54Z" fill="white"/>
<path id="Vector_3" d="M22.0089 43.3594C22.7754 42.6299 23.6505 41.9808 24.4645 41.3099L29.1821 37.4244L40.1536 28.3792C40.8488 27.8068 43.8527 25.1805 44.3906 24.9841C45.2096 24.9267 46.0491 24.9855 46.8705 24.9877C48.3927 24.983 49.915 24.9871 51.4373 25.0002C49.052 26.4567 46.7035 27.9887 44.3315 29.4709L26.6 40.5321L23.7982 42.2894C23.2113 42.6553 22.6244 43.053 22.0089 43.3594Z" fill="white"/>
<path id="Vector_4" d="M36.9559 38.0148C38.0914 37.3296 39.2682 36.7167 40.43 36.0858L44.3948 33.9022C45.3552 33.3743 46.3497 32.9073 47.2683 32.2962C47.6453 32.6373 48.1726 33.8275 48.4566 34.3396L51.0898 39.1223L54.9807 46.1724C55.7844 47.624 56.6207 49.0566 57.3713 50.5415C56.547 50.0701 55.7589 49.5365 54.9492 49.0377L50.7772 46.5268C49.2564 45.6449 47.7637 44.6969 46.2618 43.7782C43.1504 41.8747 40.0484 39.9536 36.9559 38.0148Z" fill="white"/>
</g>
<g id="illustration">
<g id="Background_Simple">
<g id="Group">
<g id="Group_2">
<path id="Vector_5" d="M359.952 196.444C354.541 217.958 340.091 240.272 322.932 251.007C310.432 258.833 230.533 259.621 167.386 261.215C104.231 262.804 78.345 227.052 78.345 227.052C63.7245 199.851 57.8761 166.65 62.047 135.08C62.2073 133.857 62.3875 132.633 62.5807 131.41C62.9534 129.06 63.3774 126.716 63.8658 124.391C66.5267 111.626 70.9802 99.3098 77.6318 88.7103C78.6987 86.9939 79.8359 85.3221 81.025 83.702C83.371 80.5123 85.9222 77.5474 88.6468 74.8058C99.8354 63.5144 113.872 55.9375 128.312 51.2621C146.261 45.4527 164.995 43.756 183.588 42.033C216.562 38.9777 249.897 35.75 282.596 41.5463C301.901 44.9666 321.548 52.0371 335.59 67.5879C339.344 71.7445 342.582 76.3754 345.378 81.3515C346.496 83.3306 347.537 85.3607 348.514 87.4426C348.514 87.4492 348.514 87.4557 348.514 87.4557C354.652 100.458 358.27 115.259 360.641 129.887C361.078 132.565 361.477 135.261 361.83 137.963V137.97C362.37 142.062 362.807 146.174 363.116 150.299C364.303 165.849 363.712 181.509 359.952 196.444Z" fill="#EAF3FF"/>
</g>
</g>
</g>
</g>
</g>
</g>
</g>
<defs>
<clipPath id="clip0_47_7319">
<rect x="-16" y="-74" width="390" height="844" rx="32" fill="white"/>
</clipPath>
</defs>
</svg>
