<svg width="34" height="34" viewBox="0 0 34 34" fill="none" xmlns="http://www.w3.org/2000/svg">
<g id="Arrow - Left Circle">
<path id="Fill 1" d="M17.0003 33.667C7.80866 33.667 0.33366 26.1903 0.33366 17.0003C0.33366 7.81033 7.80866 0.333668 17.0003 0.333668C26.1903 0.333668 33.667 7.81033 33.667 17.0003C33.667 26.1903 26.1903 33.667 17.0003 33.667Z" fill="#295488" fill-opacity="0.1"/>
<path id="Fill 4" d="M19.4044 24.0348C19.086 24.0348 18.766 23.9132 18.5227 23.6698L12.711 17.8865C12.476 17.6515 12.3444 17.3332 12.3444 16.9998C12.3444 16.6682 12.476 16.3498 12.711 16.1148L18.5227 10.3282C19.011 9.8415 19.801 9.8415 20.2894 10.3315C20.776 10.8215 20.7744 11.6132 20.286 12.0998L15.3644 16.9998L20.286 21.8998C20.7744 22.3865 20.776 23.1765 20.2894 23.6665C20.046 23.9132 19.7244 24.0348 19.4044 24.0348Z" fill="#295488"/>
</g>
</svg>
