<svg width="24" height="24" viewBox="0 0 24 24" fill="none" xmlns="http://www.w3.org/2000/svg">
<g id="Clip path group">
<mask id="mask0_1844_244" style="mask-type:luminance" maskUnits="userSpaceOnUse" x="0" y="0" width="24" height="24">
<g id="clipPath1325103322">
<path id="Vector" d="M0 0H24V24H0V0Z" fill="white"/>
</g>
</mask>
<g mask="url(#mask0_1844_244)">
<g id="Group">
<g id="Clip path group_2">
<mask id="mask1_1844_244" style="mask-type:luminance" maskUnits="userSpaceOnUse" x="0" y="0" width="24" height="24">
<g id="clipPath2549318185">
<path id="Vector_2" d="M0 0H24V24H0V0Z" fill="white"/>
</g>
</mask>
<g mask="url(#mask1_1844_244)">
<g id="Group_2">
<path id="Vector_3" d="M23.25 6.00001V6.75001C23.25 6.85357 23.2134 6.94195 23.1402 7.01518C23.0669 7.0884 22.9786 7.12501 22.875 7.12501H21.75V7.68751C21.75 7.99815 21.4981 8.25001 21.1875 8.25001H2.8125C2.50186 8.25001 2.25 7.99815 2.25 7.68751V7.12501H1.125C1.02145 7.12501 0.933058 7.0884 0.859835 7.01518C0.786612 6.94195 0.75 6.85357 0.75 6.75001V6.00001C0.750001 5.92415 0.771079 5.85469 0.813235 5.79162C0.85539 5.72856 0.911515 5.68252 0.981609 5.65351L11.8566 1.52851C11.9025 1.5095 11.9503 1.5 12 1.5C12.0497 1.5 12.0975 1.5095 12.1434 1.52851L23.0184 5.65351C23.0885 5.68252 23.1446 5.72856 23.1868 5.79162C23.2289 5.85469 23.25 5.92415 23.25 6.00001ZM22.125 20.25H1.875C1.25367 20.25 0.75 20.7537 0.75 21.375V22.125C0.75 22.2286 0.786612 22.317 0.859835 22.3902C0.933058 22.4634 1.02145 22.5 1.125 22.5H22.875C22.9786 22.5 23.0669 22.4634 23.1402 22.3902C23.2134 22.317 23.25 22.2286 23.25 22.125V21.375C23.25 20.7537 22.7463 20.25 22.125 20.25ZM4.5 9.00001V18H2.8125C2.50186 18 2.25 18.2519 2.25 18.5625V19.5H21.75V18.5625C21.75 18.2519 21.4981 18 21.1875 18H19.5V9.00001H16.5V18H13.5V9.00001H10.5V18H7.5V9.00001H4.5Z" fill="black"/>
</g>
</g>
</g>
</g>
</g>
</g>
</svg>
