<svg width="24" height="24" viewBox="0 0 24 24" fill="none" xmlns="http://www.w3.org/2000/svg">
<g id="Iconly/Curved/Bold/Calendar">
<g id="Vector">
<path fill-rule="evenodd" clip-rule="evenodd" d="M16.9546 3.728V2.125C16.9546 1.711 16.6186 1.375 16.2046 1.375C15.7906 1.375 15.4546 1.711 15.4546 2.125V5.388C15.4546 5.648 15.5956 5.867 15.7976 6.001C15.6786 6.081 15.5436 6.138 15.3896 6.138C14.9756 6.138 14.6396 5.802 14.6396 5.388V3.222C13.8376 3.126 12.9636 3.077 12.0006 3.077C10.8666 3.077 9.85556 3.145 8.94656 3.282V2.125C8.94656 1.711 8.61056 1.375 8.19656 1.375C7.78256 1.375 7.44656 1.711 7.44656 2.125V5.388C7.44656 5.648 7.58756 5.867 7.78956 6.001C7.67056 6.081 7.53556 6.138 7.38156 6.138C6.96756 6.138 6.63156 5.802 6.63156 5.388V3.858C4.49756 4.681 3.24556 6.212 2.65356 8.65H21.3486C20.7206 6.064 19.3326 4.512 16.9546 3.728Z" fill="#9CA3AF"/>
<path fill-rule="evenodd" clip-rule="evenodd" d="M16.4136 14.0864C15.9996 14.0864 15.6596 13.7504 15.6596 13.3364C15.6596 12.9224 15.9906 12.5864 16.4046 12.5864H16.4136C16.8276 12.5864 17.1636 12.9224 17.1636 13.3364C17.1636 13.7504 16.8276 14.0864 16.4136 14.0864ZM16.4136 17.9394C15.9996 17.9394 15.6596 17.6034 15.6596 17.1894C15.6596 16.7744 15.9906 16.4394 16.4046 16.4394H16.4136C16.8276 16.4394 17.1636 16.7744 17.1636 17.1894C17.1636 17.6034 16.8276 17.9394 16.4136 17.9394ZM12.0146 14.0864C11.6006 14.0864 11.2596 13.7504 11.2596 13.3364C11.2596 12.9224 11.5916 12.5864 12.0056 12.5864H12.0146C12.4286 12.5864 12.7646 12.9224 12.7646 13.3364C12.7646 13.7504 12.4286 14.0864 12.0146 14.0864ZM12.0146 17.9394C11.6006 17.9394 11.2596 17.6034 11.2596 17.1894C11.2596 16.7744 11.5916 16.4394 12.0056 16.4394H12.0146C12.4286 16.4394 12.7646 16.7744 12.7646 17.1894C12.7646 17.6034 12.4286 17.9394 12.0146 17.9394ZM7.60656 14.0864C7.19256 14.0864 6.85156 13.7504 6.85156 13.3364C6.85156 12.9224 7.18356 12.5864 7.59756 12.5864H7.60656C8.02056 12.5864 8.35656 12.9224 8.35656 13.3364C8.35656 13.7504 8.02056 14.0864 7.60656 14.0864ZM7.60656 17.9394C7.19256 17.9394 6.85156 17.6034 6.85156 17.1894C6.85156 16.7744 7.18356 16.4394 7.59756 16.4394H7.60656C8.02056 16.4394 8.35656 16.7744 8.35656 17.1894C8.35656 17.6034 8.02056 17.9394 7.60656 17.9394ZM21.6206 10.1494H2.38156C2.27956 10.9694 2.22656 11.8624 2.22656 12.8514C2.22656 20.0664 4.78456 22.6244 12.0006 22.6244C19.2176 22.6244 21.7756 20.0664 21.7756 12.8514C21.7756 11.8624 21.7226 10.9694 21.6206 10.1494Z" fill="#9CA3AF"/>
<path fill-rule="evenodd" clip-rule="evenodd" d="M16.9546 3.728V2.125C16.9546 1.711 16.6186 1.375 16.2046 1.375C15.7906 1.375 15.4546 1.711 15.4546 2.125V5.388C15.4546 5.648 15.5956 5.867 15.7976 6.001C15.6786 6.081 15.5436 6.138 15.3896 6.138C14.9756 6.138 14.6396 5.802 14.6396 5.388V3.222C13.8376 3.126 12.9636 3.077 12.0006 3.077C10.8666 3.077 9.85556 3.145 8.94656 3.282V2.125C8.94656 1.711 8.61056 1.375 8.19656 1.375C7.78256 1.375 7.44656 1.711 7.44656 2.125V5.388C7.44656 5.648 7.58756 5.867 7.78956 6.001C7.67056 6.081 7.53556 6.138 7.38156 6.138C6.96756 6.138 6.63156 5.802 6.63156 5.388V3.858C4.49756 4.681 3.24556 6.212 2.65356 8.65H21.3486C20.7206 6.064 19.3326 4.512 16.9546 3.728Z" stroke="#9CA3AF"/>
<path fill-rule="evenodd" clip-rule="evenodd" d="M16.4136 14.0864C15.9996 14.0864 15.6596 13.7504 15.6596 13.3364C15.6596 12.9224 15.9906 12.5864 16.4046 12.5864H16.4136C16.8276 12.5864 17.1636 12.9224 17.1636 13.3364C17.1636 13.7504 16.8276 14.0864 16.4136 14.0864ZM16.4136 17.9394C15.9996 17.9394 15.6596 17.6034 15.6596 17.1894C15.6596 16.7744 15.9906 16.4394 16.4046 16.4394H16.4136C16.8276 16.4394 17.1636 16.7744 17.1636 17.1894C17.1636 17.6034 16.8276 17.9394 16.4136 17.9394ZM12.0146 14.0864C11.6006 14.0864 11.2596 13.7504 11.2596 13.3364C11.2596 12.9224 11.5916 12.5864 12.0056 12.5864H12.0146C12.4286 12.5864 12.7646 12.9224 12.7646 13.3364C12.7646 13.7504 12.4286 14.0864 12.0146 14.0864ZM12.0146 17.9394C11.6006 17.9394 11.2596 17.6034 11.2596 17.1894C11.2596 16.7744 11.5916 16.4394 12.0056 16.4394H12.0146C12.4286 16.4394 12.7646 16.7744 12.7646 17.1894C12.7646 17.6034 12.4286 17.9394 12.0146 17.9394ZM7.60656 14.0864C7.19256 14.0864 6.85156 13.7504 6.85156 13.3364C6.85156 12.9224 7.18356 12.5864 7.59756 12.5864H7.60656C8.02056 12.5864 8.35656 12.9224 8.35656 13.3364C8.35656 13.7504 8.02056 14.0864 7.60656 14.0864ZM7.60656 17.9394C7.19256 17.9394 6.85156 17.6034 6.85156 17.1894C6.85156 16.7744 7.18356 16.4394 7.59756 16.4394H7.60656C8.02056 16.4394 8.35656 16.7744 8.35656 17.1894C8.35656 17.6034 8.02056 17.9394 7.60656 17.9394ZM21.6206 10.1494H2.38156C2.27956 10.9694 2.22656 11.8624 2.22656 12.8514C2.22656 20.0664 4.78456 22.6244 12.0006 22.6244C19.2176 22.6244 21.7756 20.0664 21.7756 12.8514C21.7756 11.8624 21.7226 10.9694 21.6206 10.1494Z" stroke="#9CA3AF"/>
</g>
</g>
</svg>
