<svg width="24" height="24" viewBox="0 0 24 24" fill="none" xmlns="http://www.w3.org/2000/svg">
<g id="Clip path group">
<mask id="mask0_1844_34" style="mask-type:luminance" maskUnits="userSpaceOnUse" x="0" y="0" width="24" height="24">
<g id="clipPath4651237077">
<path id="Vector" d="M0 0H24V24H0V0Z" fill="white"/>
</g>
</mask>
<g mask="url(#mask0_1844_34)">
<g id="Group">
<g id="Clip path group_2">
<mask id="mask1_1844_34" style="mask-type:luminance" maskUnits="userSpaceOnUse" x="0" y="0" width="24" height="24">
<g id="clipPath7311504296">
<path id="Vector_2" d="M0 0H24V24H0V0Z" fill="white"/>
</g>
</mask>
<g mask="url(#mask1_1844_34)">
<g id="Group_2">
<path id="Vector_3" d="M12.4154 0.126009C12.2896 0.0422675 12.1511 0.000396729 11.9999 0.000396729C11.8488 0.000396729 11.7103 0.0422675 11.5844 0.126009L0.334424 7.62601C0.196986 7.71766 0.100371 7.84122 0.0445778 7.9967C-0.0112146 8.15218 -0.0152033 8.30899 0.032612 8.4671C0.0804273 8.62522 0.170636 8.75354 0.303237 8.85205C0.435838 8.95056 0.584733 8.99989 0.749923 9.00001H3.56242V19.5H2.24992C2.04281 19.5 1.86604 19.5732 1.71959 19.7197C1.57314 19.8661 1.49992 20.0429 1.49992 20.25C1.49992 20.4571 1.57314 20.6339 1.71959 20.7803C1.86604 20.9268 2.04281 21 2.24992 21H21.7499C21.957 21 22.1338 20.9268 22.2802 20.7803C22.4267 20.6339 22.4999 20.4571 22.4999 20.25C22.4999 20.0429 22.4267 19.8661 22.2802 19.7197C22.1338 19.5732 21.957 19.5 21.7499 19.5H20.4374V9.00001H23.2499C23.4151 8.99989 23.564 8.95056 23.6966 8.85205C23.8292 8.75354 23.9194 8.62522 23.9672 8.46711C24.015 8.30899 24.0111 8.15219 23.9553 7.9967C23.8995 7.84122 23.8029 7.71766 23.6654 7.62601L12.4154 0.126009ZM18.5624 9.00001V19.5H16.6874V9.00001H18.5624ZM14.8124 9.00001V19.5H12.9374V9.00001H14.8124ZM11.0624 9.00001V19.5H9.18742V9.00001H11.0624ZM7.31242 9.00001V19.5H5.43742V9.00001H7.31242ZM11.9999 6.00001C11.5857 6.00001 11.2321 5.85357 10.9393 5.56067C10.6464 5.26778 10.4999 4.91423 10.4999 4.50001C10.4999 4.0858 10.6464 3.73225 10.9392 3.43935C11.2321 3.14646 11.5857 3.00001 11.9999 3.00001C12.4141 3.00001 12.7677 3.14646 13.0606 3.43935C13.3535 3.73225 13.4999 4.0858 13.4999 4.50001C13.4999 4.91423 13.3535 5.26778 13.0606 5.56067C12.7677 5.85357 12.4141 6.00001 11.9999 6.00001ZM0.749923 22.5C0.542817 22.5 0.36604 22.5732 0.219593 22.7197C0.0731464 22.8661 -7.68561e-05 23.0429 -7.68561e-05 23.25C-7.68561e-05 23.4571 0.0731464 23.6339 0.219593 23.7803C0.36604 23.9268 0.542817 24 0.749923 24H23.2499C23.457 24 23.6338 23.9268 23.7802 23.7803C23.9267 23.6339 23.9999 23.4571 23.9999 23.25C23.9999 23.0429 23.9267 22.8661 23.7802 22.7197C23.6338 22.5732 23.457 22.5 23.2499 22.5H0.749923Z" fill="black"/>
</g>
</g>
</g>
</g>
</g>
</g>
</svg>
