<svg width="390" height="167" viewBox="0 0 390 167" fill="none" xmlns="http://www.w3.org/2000/svg">
<path fill-rule="evenodd" clip-rule="evenodd" d="M0 34.7346L16.2917 40.2721C32.5833 45.8097 65.1667 56.8848 97.75 59.6536C130.333 62.4223 162.917 56.8848 195.5 43.0409C228.083 29.197 260.667 7.04678 293.25 1.50922C325.833 -4.02834 358.417 7.04678 374.708 12.5843L391 18.1219V151.023H374.708C358.417 151.023 325.833 151.023 293.25 151.023C260.667 151.023 228.083 151.023 195.5 151.023C162.917 151.023 130.333 151.023 97.75 151.023C65.1667 151.023 32.5833 151.023 16.2917 151.023H0V34.7346Z" fill="#17304E"/>
<path fill-rule="evenodd" clip-rule="evenodd" d="M0 50.2811L16.2917 55.8186C32.5833 61.3562 65.1667 72.4313 97.75 75.2001C130.333 77.9689 162.917 72.4313 195.5 58.5874C228.083 44.7435 260.667 22.5933 293.25 17.0557C325.833 11.5182 358.417 22.5933 374.708 28.1308L391 33.6684V166.57H374.708C358.417 166.57 325.833 166.57 293.25 166.57C260.667 166.57 228.083 166.57 195.5 166.57C162.917 166.57 130.333 166.57 97.75 166.57C65.1667 166.57 32.5833 166.57 16.2917 166.57H0V50.2811Z" fill="#20426B"/>
<path fill-rule="evenodd" clip-rule="evenodd" d="M0 62.4962L16.2917 68.0338C32.5833 73.5713 65.1667 84.6464 97.75 87.4152C130.333 90.184 162.917 84.6464 195.5 70.8026C228.083 56.9587 260.667 34.8084 293.25 29.2709C325.833 23.7333 358.417 34.8084 374.708 40.346L391 45.8835V178.785H374.708C358.417 178.785 325.833 178.785 293.25 178.785C260.667 178.785 228.083 178.785 195.5 178.785C162.917 178.785 130.333 178.785 97.75 178.785C65.1667 178.785 32.5833 178.785 16.2917 178.785H0V62.4962Z" fill="#295488"/>
<path fill-rule="evenodd" clip-rule="evenodd" d="M0 74.7113L16.2917 80.2489C32.5833 85.7864 65.1667 96.8615 97.75 99.6303C130.333 102.399 162.917 96.8615 195.5 83.0176C228.083 69.1738 260.667 47.0235 293.25 41.486C325.833 35.9484 358.417 47.0235 374.708 52.5611L391 58.0986V191H374.708C358.417 191 325.833 191 293.25 191C260.667 191 228.083 191 195.5 191C162.917 191 130.333 191 97.75 191C65.1667 191 32.5833 191 16.2917 191H0V74.7113Z" fill="#3F7CC5"/>
<path fill-rule="evenodd" clip-rule="evenodd" d="M0 86.7113L16.2917 92.2489C32.5833 97.7864 65.1667 108.862 97.75 111.63C130.333 114.399 162.917 108.862 195.5 95.0176C228.083 81.1738 260.667 59.0235 293.25 53.486C325.833 47.9484 358.417 59.0235 374.708 64.5611L391 70.0986V203H374.708C358.417 203 325.833 203 293.25 203C260.667 203 228.083 203 195.5 203C162.917 203 130.333 203 97.75 203C65.1667 203 32.5833 203 16.2917 203H0V86.7113Z" fill="#A0D2F4"/>
</svg>
