<svg width="24" height="25" viewBox="0 0 24 25" fill="none" xmlns="http://www.w3.org/2000/svg">
<g id="logos:whatsapp-icon">
<g id="Vector">
<mask id="path-1-inside-1_1894_2386" fill="white">
<path d="M0.515483 12.3563C0.514921 14.3728 1.04579 16.3417 2.05522 18.0771L0.418945 24.0066L6.53289 22.4156C8.22394 23.3292 10.1186 23.808 12.044 23.8081H12.0491C18.4051 23.8081 23.5791 18.6748 23.5818 12.3653C23.583 9.30792 22.3844 6.43295 20.2068 4.26997C18.0295 2.10718 15.1339 0.915458 12.0486 0.914062C5.69179 0.914062 0.518201 6.04709 0.515577 12.3563"/>
</mask>
<path d="M0.515483 12.3563C0.514921 14.3728 1.04579 16.3417 2.05522 18.0771L0.418945 24.0066L6.53289 22.4156C8.22394 23.3292 10.1186 23.808 12.044 23.8081H12.0491C18.4051 23.8081 23.5791 18.6748 23.5818 12.3653C23.583 9.30792 22.3844 6.43295 20.2068 4.26997C18.0295 2.10718 15.1339 0.915458 12.0486 0.914062C5.69179 0.914062 0.518201 6.04709 0.515577 12.3563" fill="url(#paint0_linear_1894_2386)"/>
<path d="M2.05522 18.0771L2.14489 18.1019L2.15529 18.0642L2.13563 18.0304L2.05522 18.0771ZM0.418945 24.0066L0.329274 23.9819L0.286401 24.1372L0.442373 24.0966L0.418945 24.0066ZM6.53289 22.4156L6.57711 22.3337L6.5449 22.3163L6.50947 22.3255L6.53289 22.4156ZM12.044 23.8081L12.044 23.9011H12.044V23.8081ZM23.5818 12.3653L23.6748 12.3654V12.3654L23.5818 12.3653ZM20.2068 4.26997L20.1412 4.33597L20.1412 4.33597L20.2068 4.26997ZM12.0486 0.914062L12.0486 0.821039H12.0486V0.914062ZM0.515483 12.3563L0.42246 12.3563C0.421893 14.3891 0.957095 16.3742 1.97481 18.1239L2.05522 18.0771L2.13563 18.0304C1.13448 16.3092 0.607949 14.3564 0.608507 12.3563L0.515483 12.3563ZM2.05522 18.0771L1.96555 18.0524L0.329274 23.9819L0.418945 24.0066L0.508617 24.0314L2.14489 18.1019L2.05522 18.0771ZM0.418945 24.0066L0.442373 24.0966L6.55632 22.5056L6.53289 22.4156L6.50947 22.3255L0.395518 23.9166L0.418945 24.0066ZM6.53289 22.4156L6.48867 22.4974C8.19332 23.4184 10.1032 23.901 12.044 23.9011L12.044 23.8081L12.044 23.7151C10.134 23.7149 8.25455 23.24 6.57711 22.3337L6.53289 22.4156ZM12.044 23.8081V23.9011H12.0491V23.8081V23.7151H12.044V23.8081ZM12.0491 23.8081V23.9011C18.4558 23.9011 23.6721 18.7269 23.6748 12.3654L23.5818 12.3653L23.4888 12.3653C23.4861 18.6228 18.3544 23.7151 12.0491 23.7151V23.8081ZM23.5818 12.3653L23.6748 12.3654C23.676 9.28306 22.4675 6.38434 20.2724 4.20397L20.2068 4.26997L20.1412 4.33597C22.3014 6.48155 23.49 9.33279 23.4888 12.3653L23.5818 12.3653ZM20.2068 4.26997L20.2724 4.20397C18.0776 2.02379 15.1583 0.822446 12.0486 0.821039L12.0486 0.914062L12.0485 1.00709C15.1094 1.00847 17.9815 2.19057 20.1412 4.33597L20.2068 4.26997ZM12.0486 0.914062V0.821039C5.64109 0.821039 0.4252 5.99503 0.422554 12.3563L0.515577 12.3563L0.6086 12.3563C0.611203 6.09914 5.7425 1.00709 12.0486 1.00709V0.914062Z" fill="#717171" mask="url(#path-1-inside-1_1894_2386)"/>
</g>
<path id="Vector_2" d="M0.104193 12.3527C0.103537 14.4417 0.653429 16.481 1.69885 18.2786L0.00390625 24.4207L6.33708 22.7726C8.08207 23.7168 10.0468 24.2147 12.0459 24.2154H12.0511C18.6352 24.2154 23.995 18.8975 23.9978 12.3621C23.9989 9.19488 22.7573 6.21656 20.5018 3.97609C18.2461 1.73591 15.2469 0.501302 12.0511 0.5C5.46589 0.5 0.106818 5.81721 0.104193 12.3527ZM3.87583 17.969L3.63936 17.5965C2.6453 16.0277 2.12062 14.2149 2.12137 12.3534C2.12343 6.9213 6.57768 2.50186 12.0548 2.50186C14.7073 2.50298 17.2 3.52921 19.0749 5.39116C20.9497 7.2533 21.9814 9.72865 21.9807 12.3614C21.9783 17.7935 17.524 22.2135 12.0511 22.2135H12.0472C10.2651 22.2126 8.51743 21.7376 6.99326 20.84L6.63054 20.6265L2.8723 21.6045L3.87583 17.969Z" fill="url(#paint1_linear_1894_2386)"/>
<path id="Vector_3" d="M9.065 7.39771C8.84137 6.9044 8.60602 6.89445 8.39336 6.8858C8.21921 6.87836 8.02014 6.87892 7.82125 6.87892C7.62218 6.87892 7.29873 6.95324 7.02533 7.24952C6.75165 7.54608 5.98047 8.26273 5.98047 9.72031C5.98047 11.1779 7.05017 12.5866 7.19928 12.7845C7.34859 12.982 9.26435 16.0689 12.2985 17.2564C14.8201 18.2433 15.3332 18.047 15.8805 17.9975C16.4278 17.9482 17.6467 17.2811 17.8953 16.5892C18.1442 15.8975 18.1442 15.3046 18.0696 15.1807C17.995 15.0572 17.7959 14.9831 17.4974 14.835C17.1988 14.6869 15.7312 13.9701 15.4576 13.8712C15.1839 13.7724 14.9849 13.7231 14.7859 14.0198C14.5868 14.3159 14.0151 14.9831 13.8409 15.1807C13.6669 15.3787 13.4926 15.4034 13.1942 15.2552C12.8955 15.1065 11.9341 14.7941 10.7936 13.7849C9.90619 12.9996 9.30709 12.0298 9.13295 11.7331C8.95881 11.437 9.1143 11.2764 9.26398 11.1288C9.3981 10.996 9.56259 10.7828 9.71199 10.6099C9.86083 10.4369 9.9105 10.3134 10.01 10.1158C10.1097 9.91808 10.0598 9.74506 9.9853 9.59687C9.9105 9.44868 9.33043 7.98347 9.065 7.39771Z" fill="white"/>
</g>
<defs>
<linearGradient id="paint0_linear_1894_2386" x1="1158.56" y1="2310.17" x2="1158.56" y2="0.914062" gradientUnits="userSpaceOnUse">
<stop stop-color="#1FAF38"/>
<stop offset="1" stop-color="#60D669"/>
</linearGradient>
<linearGradient id="paint1_linear_1894_2386" x1="1199.7" y1="2392.57" x2="1199.7" y2="0.5" gradientUnits="userSpaceOnUse">
<stop stop-color="#F9F9F9"/>
<stop offset="1" stop-color="white"/>
</linearGradient>
</defs>
</svg>
